<svg width="24" height="24" viewBox="0 0 24 24" fill="none" xmlns="http://www.w3.org/2000/svg">
<path d="M17.2842 4.41156C19.1165 4.41156 20.6023 5.89744 20.6023 7.72972C20.6022 8.62055 20.2501 9.42848 19.6783 10.0241C19.5342 10.1743 19.5679 10.4356 19.7501 10.536C20.7358 11.0787 21.5239 11.936 21.9781 12.9732C22.0543 13.1472 21.9219 13.3349 21.7321 13.3351H17.4458C17.4721 13.1208 17.4862 12.9027 17.4862 12.6814C17.4862 10.366 16.0217 8.39222 13.9687 7.63543C14.0185 5.84673 15.4835 4.41166 17.2842 4.41156Z" fill="#EC3910"/>
<path d="M6.83581 4.41156C8.64952 4.41158 10.1225 5.86738 10.1522 7.67405C8.1515 8.45716 6.73433 10.4036 6.73433 12.6814C6.73437 12.9027 6.74854 13.1208 6.77474 13.3351H2C2.47013 11.9902 3.48505 10.9016 4.78025 10.3331C4.01173 9.72556 3.5187 8.78538 3.51854 7.72972C3.51854 5.89744 5.00352 4.41156 6.83581 4.41156Z" fill="#EC3910"/>
<path d="M12.1097 8.59222C14.3676 8.59222 16.1984 10.423 16.1984 12.6809C16.1983 13.8026 15.7453 14.8178 15.0133 15.5561C14.854 15.7168 14.8906 16 15.09 16.1071C16.3484 16.7828 17.3514 17.8724 17.9161 19.1944C17.9973 19.3844 17.8529 19.5884 17.6463 19.5884H6.57317C6.36657 19.5884 6.22218 19.3844 6.30334 19.1944C6.86798 17.8726 7.8706 16.7828 9.12873 16.1071C9.32806 16 9.36471 15.7169 9.20547 15.5561C8.47402 14.8177 8.02209 13.8024 8.02197 12.6809C8.02197 10.423 9.85188 8.59222 12.1097 8.59222Z" fill="#EC3910"/>
</svg>
