<svg width="28" height="28" viewBox="0 0 28 28" fill="none" xmlns="http://www.w3.org/2000/svg">
<path d="M14 2C20.6274 2 26 7.37258 26 14C26 20.6274 20.6274 26 14 26C7.37258 26 2 20.6274 2 14C2 7.37258 7.37258 2 14 2ZM4.80371 11.2744V17.1162H6.35352V14.8467H8.59277V13.5361H6.35352V12.584H8.84082V11.2744H4.80371ZM9.28906 11.2744V17.1162H10.8398V15.1875H11.3887L12.3867 17.0547L12.4189 17.1162H14.1348L14.04 16.9443L12.9238 14.9072C13.4793 14.6113 13.8113 14.0948 13.8496 13.4004L13.8535 13.25C13.8554 12.6511 13.6511 12.1529 13.2715 11.8057C12.893 11.4595 12.352 11.2745 11.6992 11.2744H9.28906ZM14.3633 11.2744V17.1162H18.4863V15.8066H15.9141V14.8467H18.2773V13.5361H15.9141V12.584H18.4785V11.2744H14.3633ZM19.0898 11.2744V17.1162H23.2119V15.8066H20.6396V14.8467H23.0029V13.5361H20.6396V12.584H23.2041V11.2744H19.0898ZM11.4199 12.5771C11.718 12.5771 11.9256 12.6404 12.0566 12.748C12.1833 12.8523 12.2568 13.0125 12.2568 13.25C12.2568 13.4875 12.1837 13.6425 12.0586 13.7412C11.9281 13.8441 11.7206 13.9022 11.4209 13.9004H10.8398V12.5771H11.4199Z" fill="#EC3910"/>
</svg>
