<svg width="28" height="28" viewBox="0 0 28 28" fill="none" xmlns="http://www.w3.org/2000/svg">
<path d="M6.10529 4.45691C6.20043 4.36999 6.34845 4.37641 6.43536 4.47156L10.6981 9.13757L10.7059 9.13074L18.4725 17.6317L18.4647 17.6395L22.3543 21.8973C22.4412 21.9925 22.4348 22.1405 22.3397 22.2274L21.5145 22.9813C21.4194 23.0681 21.2723 23.0615 21.1854 22.9667L17.367 18.788L10.574 25.9012C10.3555 26.1299 9.97306 25.9322 10.033 25.6219L11.5701 17.7587C11.5997 17.6074 11.5159 17.4572 11.3719 17.4022L5.58673 15.1932C5.37607 15.1126 5.31477 14.8437 5.46954 14.6796L9.60724 10.2938L5.26544 5.54089C5.17853 5.44575 5.18495 5.29773 5.28009 5.21082L6.10529 4.45691ZM17.3445 2.09949C17.5605 1.87147 17.9409 2.06349 17.8865 2.37292L16.4969 10.2538C16.4702 10.4063 16.5589 10.5558 16.7049 10.6073L22.5848 12.6815C22.8014 12.7582 22.8674 13.0328 22.7088 13.1991L19.5692 16.4833L11.7977 7.97449L17.3445 2.09949Z" fill="#EC3910"/>
</svg>
