<svg width="24" height="24" viewBox="0 0 24 24" fill="none" xmlns="http://www.w3.org/2000/svg">
<path d="M12 2C17.5228 2 22 6.47715 22 12C21.9998 17.5227 17.5227 22 12 22C6.47741 21.9998 2.0002 17.5226 2 12C2 6.47725 6.47729 2.00016 12 2ZM6.33105 9.89258C5.23789 9.89258 4.39355 10.6463 4.39355 12C4.39371 13.3478 5.221 14.1064 6.33105 14.1064C7.38592 14.1064 8.00345 13.426 8.12793 12.7314C8.13807 12.6734 8.09216 12.6224 8.0332 12.6221L7.25293 12.6172C7.20452 12.617 7.16339 12.6526 7.15039 12.6992C7.05206 13.0514 6.75845 13.2568 6.34766 13.2568C5.75888 13.2567 5.38 12.8265 5.37988 12C5.37988 11.2014 5.75038 10.7394 6.35352 10.7422C6.77999 10.7396 7.07208 10.9695 7.1543 11.3408C7.1652 11.3899 7.2075 11.4277 7.25781 11.4277H8.03223C8.09156 11.4277 8.13816 11.376 8.12891 11.3174C7.98535 10.4087 7.27618 9.89259 6.33105 9.89258ZM10.4277 9.89258C9.32324 9.89258 8.47949 10.6463 8.47949 12C8.47965 13.345 9.32334 14.1064 10.4277 14.1064C11.5265 14.1064 12.3787 13.3506 12.376 12C12.3788 10.6463 11.5266 9.89259 10.4277 9.89258ZM14.3545 9.89258C13.4257 9.89258 12.7541 10.3994 12.7568 11.1611C12.7568 11.7784 13.1905 12.1297 13.8955 12.2939L14.3262 12.3965C14.7791 12.4984 14.9883 12.6226 14.9941 12.8604C14.9885 13.1236 14.7455 13.3026 14.3379 13.3027C13.935 13.3027 13.6513 13.1306 13.5898 12.7959C13.5803 12.7439 13.5372 12.7023 13.4844 12.7021H12.751C12.6953 12.7024 12.6505 12.7481 12.6543 12.8037C12.7158 13.6779 13.3639 14.1037 14.3486 14.1064C15.3682 14.1036 15.9718 13.6363 15.9746 12.8604C15.9717 12.2034 15.5127 11.8095 14.7227 11.6367L14.3662 11.5518C13.9982 11.4725 13.7485 11.3484 13.7539 11.0938C13.7567 10.8616 13.9579 10.6915 14.3486 10.6914C14.7004 10.6914 14.9149 10.8336 14.9746 11.0762C14.987 11.1266 15.0291 11.167 15.0811 11.167H15.8164C15.8721 11.167 15.9178 11.1209 15.9131 11.0654C15.8536 10.3624 15.2576 9.89258 14.3545 9.89258ZM16.2568 9.94922C16.2019 9.94945 16.1574 9.99393 16.1572 10.0488V10.6367C16.1573 10.6917 16.2019 10.7361 16.2568 10.7363H17.3037C17.3588 10.7365 17.4033 10.7818 17.4033 10.8369V13.9502C17.4034 14.0052 17.448 14.0496 17.5029 14.0498H18.2607C18.3158 14.0497 18.3603 14.0053 18.3604 13.9502V10.8369C18.3604 10.7817 18.4057 10.7363 18.4609 10.7363H19.5068C19.5619 10.7362 19.6064 10.6918 19.6064 10.6367V10.0488C19.6062 9.99384 19.5619 9.94931 19.5068 9.94922H16.2568ZM10.4277 10.7422C11.0281 10.7394 11.3935 11.1844 11.3906 12C11.3933 12.8154 11.028 13.2568 10.4277 13.2568C9.83027 13.2568 9.46495 12.8154 9.46484 12C9.46484 11.1844 9.83018 10.7394 10.4277 10.7422Z" fill="#EC3910"/>
</svg>
