<svg width="24" height="24" viewBox="0 0 24 24" fill="none" xmlns="http://www.w3.org/2000/svg">
<path d="M4.034 3.43243C4.11555 3.35793 4.24172 3.36358 4.31622 3.44513L19.0457 19.5682C19.1202 19.6497 19.1145 19.7759 19.033 19.8504L18.2479 20.5682C18.1663 20.6425 18.0391 20.637 17.9647 20.5555L16.9461 19.4402H6.54279C6.3554 19.4397 6.22434 19.2548 6.29669 19.0818C6.86568 17.7267 7.89305 16.6111 9.18439 15.9295C9.36641 15.8334 9.39924 15.5761 9.25275 15.4315C8.50091 14.6889 8.03421 13.6576 8.034 12.5174C8.03405 11.7254 8.25992 10.9861 8.64923 10.3592L7.7547 9.3797C7.11949 10.2635 6.74494 11.347 6.74493 12.5184C6.745 12.74 6.75873 12.959 6.78497 13.1736H1.99982C2.47095 11.8259 3.48808 10.7348 4.78595 10.1649C4.01589 9.55608 3.52169 8.61323 3.5213 7.55548C3.52131 6.78576 3.78429 6.07811 4.22345 5.51447L3.23517 4.43243C3.16072 4.35095 3.16649 4.22375 3.24786 4.14923L4.034 3.43243ZM12.1317 8.41876C14.3945 8.41887 16.2291 10.2545 16.2293 12.5174C16.2292 13.0443 16.1277 13.5472 15.9461 14.0096L10.9871 8.58185C11.3504 8.47628 11.7344 8.41882 12.1317 8.41876ZM17.2733 4.22833C19.1097 4.22833 20.5994 5.71803 20.5994 7.5545C20.5993 8.44738 20.2458 9.25727 19.6727 9.85431C19.5284 10.0048 19.5624 10.2664 19.7449 10.367C20.7329 10.911 21.5231 11.7707 21.9783 12.8104C22.0544 12.9846 21.9214 13.1724 21.7313 13.1727H17.4354C17.4617 12.958 17.4754 12.7392 17.4754 12.5174C17.4753 10.1967 16.0077 8.21828 13.95 7.45978C14.0001 5.6671 15.4685 4.22845 17.2733 4.22833ZM7.01447 4.23322C8.75449 4.31986 10.1419 5.74512 10.1707 7.49982C10.1288 7.51623 10.0871 7.53317 10.0457 7.5506L7.01447 4.23322Z" fill="#EC3910"/>
</svg>
