<svg width="24" height="24" viewBox="0 0 24 24" fill="currentColor" xmlns="http://www.w3.org/2000/svg">
<path fill-rule="evenodd" clip-rule="evenodd" d="M12 20.9999L12.708 21.7059C12.6151 21.7992 12.5047 21.8732 12.3831 21.9237C12.2615 21.9742 12.1312 22.0002 11.9995 22.0002C11.8678 22.0002 11.7375 21.9742 11.6159 21.9237C11.4943 21.8732 11.3839 21.7992 11.291 21.7059L11.285 21.6989L11.268 21.6819L11.206 21.6189C10.8535 21.2557 10.5068 20.887 10.166 20.5129C9.31072 19.5751 8.49146 18.605 7.71 17.6049C6.818 16.4549 5.906 15.1549 5.213 13.8709C4.535 12.6119 4 11.2479 4 9.99988C4 5.46088 7.592 1.99988 12 1.99988C16.408 1.99988 20 5.46088 20 9.99988C20 11.2479 19.465 12.6119 18.787 13.8699C18.094 15.1559 17.183 16.4549 16.29 17.6049C15.1968 19.004 14.0298 20.3439 12.794 21.6189L12.732 21.6819L12.715 21.6989L12.709 21.7049L12 20.9999ZM12 12.9999C12.7956 12.9999 13.5587 12.6838 14.1213 12.1212C14.6839 11.5586 15 10.7955 15 9.99988C15 9.20423 14.6839 8.44117 14.1213 7.87856C13.5587 7.31595 12.7956 6.99988 12 6.99988C11.2044 6.99988 10.4413 7.31595 9.87868 7.87856C9.31607 8.44117 9 9.20423 9 9.99988C9 10.7955 9.31607 11.5586 9.87868 12.1212C10.4413 12.6838 11.2044 12.9999 12 12.9999Z" fill="currentColor"/>
</svg>
