<svg width="28" height="28" viewBox="0 0 28 28" fill="none" xmlns="http://www.w3.org/2000/svg">
<path d="M20.3411 4.89383C22.5399 4.89383 24.3229 6.67688 24.3229 8.87562C24.3227 9.94461 23.9002 10.9141 23.214 11.6289C23.0411 11.8091 23.0816 12.1227 23.3002 12.2432C24.4831 12.8944 25.4288 13.9232 25.9738 15.1678C26.0652 15.3765 25.9063 15.6018 25.6785 15.6021H20.5351C20.5666 15.345 20.5835 15.0832 20.5836 14.8176C20.5836 12.0391 18.8261 9.67062 16.3625 8.76247C16.4223 6.61604 18.1803 4.89395 20.3411 4.89383Z" fill="#EC3910"/>
<path d="M7.80297 4.89386C9.97943 4.89388 11.747 6.64085 11.7826 8.80884C9.3818 9.74858 7.6812 12.0844 7.6812 14.8176C7.68125 15.0832 7.69824 15.345 7.72969 15.6021H2C2.56415 13.9883 3.78207 12.682 5.3363 11.9997C4.41408 11.2707 3.82244 10.1424 3.82225 8.87565C3.82225 6.67691 5.60423 4.89386 7.80297 4.89386Z" fill="#EC3910"/>
<path d="M14.1317 9.91061C16.8411 9.91061 19.0381 12.1076 19.0381 14.817C19.038 16.1691 18.4895 17.3921 17.6043 18.2791C17.4178 18.466 17.4605 18.7962 17.6934 18.9206C19.2145 19.733 20.4261 21.0488 21.1049 22.6461C21.1992 22.868 21.0307 23.106 20.7897 23.106H7.47376C7.23272 23.106 7.06426 22.868 7.15853 22.6461C7.83725 21.049 9.04844 19.7331 10.5692 18.9206C10.802 18.7962 10.8447 18.466 10.6583 18.2791C9.7737 17.3921 9.22655 16.1688 9.22641 14.817C9.22641 12.1076 11.4223 9.91061 14.1317 9.91061Z" fill="#EC3910"/>
</svg>
