<svg width="18" height="18" viewBox="0 0 18 18" fill="currentColor" xmlns="http://www.w3.org/2000/svg">
<path d="M8.3201 12.3272C8.69564 11.9517 9.30436 11.9517 9.6799 12.3272C10.0554 12.7027 10.0554 13.3115 9.6799 13.687L8.47786 14.8891C7.76619 15.6005 6.80117 16 5.79488 16C4.7886 16 3.82358 15.6004 3.11189 14.8891H3.11095C2.39945 14.1773 2 13.2115 2 12.2051C2.00012 11.1989 2.39957 10.2337 3.11095 9.52214L5.51503 7.11806H5.51596C6.22766 6.40667 7.19267 6.00711 8.19895 6.00711C9.20525 6.00715 10.1703 6.4066 10.8819 7.11806C11.2575 7.49355 11.2574 8.10227 10.8819 8.47786C10.5064 8.85336 9.8977 8.85333 9.52214 8.47786C9.17115 8.12709 8.69518 7.93042 8.19895 7.93037C7.70275 7.93037 7.22678 8.12716 6.87577 8.47786L4.47169 10.8819C4.12085 11.2329 3.92338 11.7089 3.92326 12.2051C3.92326 12.7015 4.12074 13.1782 4.47169 13.5292C4.8227 13.8799 5.29868 14.0767 5.79488 14.0767C6.29109 14.0767 6.76707 13.88 7.11806 13.5292L8.3201 12.3272ZM14.0767 5.79488C14.0767 5.29848 13.8802 4.8218 13.5292 4.47075V4.47169C13.1782 4.12074 12.7015 3.92326 12.2051 3.92326C11.7089 3.92338 11.2329 4.12084 10.8819 4.47169L9.6799 5.67373C9.30439 6.0489 8.69555 6.049 8.3201 5.67373C7.94456 5.29819 7.94456 4.68853 8.3201 4.31299L9.52214 3.11095C10.2337 2.39957 11.1989 2.00012 12.2051 2C13.1487 2 14.0567 2.35108 14.7529 2.98135L14.8891 3.11095V3.11189C15.6004 3.82358 16 4.7886 16 5.79488C16 6.80117 15.6005 7.76619 14.8891 8.47786L12.485 10.8819C11.7733 11.5935 10.8074 11.9938 9.80105 11.9938C8.79483 11.9937 7.82967 11.5934 7.11806 10.8819C6.74271 10.5064 6.74265 9.89765 7.11806 9.52214C7.49354 9.14666 8.1023 9.14673 8.47786 9.52214C8.82881 9.87298 9.30482 10.0704 9.80105 10.0706C10.2974 10.0706 10.7741 9.87309 11.1252 9.52214L13.5292 7.11806C13.88 6.76707 14.0767 6.29109 14.0767 5.79488Z" fill="currentColor"/>
</svg>
