<svg width="24" height="24" viewBox="0 0 24 24" fill="none" xmlns="http://www.w3.org/2000/svg">
<path d="M12 2C17.5228 2 21.9998 6.47728 22 12C22 17.5228 17.5228 22 12 22C6.47729 21.9998 2 17.5228 2 12C2.00016 6.47738 6.47738 2.00016 12 2ZM5.04688 9.87891C4.99182 9.87911 4.94727 9.92439 4.94727 9.97949V14.0215C4.94732 14.0765 4.99185 14.1209 5.04688 14.1211H5.84375C5.89876 14.1209 5.9433 14.0765 5.94336 14.0215V12.5049C5.94336 12.4498 5.98791 12.4045 6.04297 12.4043H7.53711C7.59212 12.4041 7.63666 12.3597 7.63672 12.3047V11.6904C7.63672 11.6353 7.59215 11.5901 7.53711 11.5898H6.04297C5.98795 11.5896 5.94341 11.5453 5.94336 11.4902V10.7939C5.94336 10.7388 5.98791 10.6936 6.04297 10.6934H7.72461C7.77962 10.6931 7.82416 10.6488 7.82422 10.5938V9.97949C7.82422 9.9244 7.77965 9.87912 7.72461 9.87891H5.04688ZM8.55957 9.87891C8.50446 9.87904 8.45996 9.92435 8.45996 9.97949V14.0215C8.46002 14.0766 8.50449 14.121 8.55957 14.1211H9.35547C9.41066 14.1211 9.456 14.0767 9.45605 14.0215V12.7627C9.45605 12.7076 9.50055 12.6622 9.55566 12.6621H9.95215C9.98896 12.6621 10.0236 12.6824 10.041 12.7148L10.7637 14.0684C10.781 14.1008 10.8148 14.121 10.8516 14.1211H11.7188C11.7946 14.1211 11.843 14.0403 11.8066 13.9736L11.0547 12.5928C11.0269 12.5417 11.0487 12.4782 11.0996 12.4502C11.5054 12.2269 11.7354 11.8265 11.7354 11.2852C11.7352 10.4182 11.1492 9.87896 10.1943 9.87891H8.55957ZM12.5176 9.87891C12.4624 9.87898 12.418 9.92431 12.418 9.97949V14.0215C12.418 14.0766 12.4624 14.121 12.5176 14.1211H15.2588C15.314 14.1211 15.3593 14.0767 15.3594 14.0215V13.4072C15.3594 13.352 15.314 13.3066 15.2588 13.3066H13.5137C13.4585 13.3066 13.4141 13.2622 13.4141 13.207V12.5049C13.4141 12.4497 13.4585 12.4044 13.5137 12.4043H15.1006C15.1558 12.4043 15.2011 12.3599 15.2012 12.3047V11.6904C15.2012 11.6352 15.1558 11.5898 15.1006 11.5898H13.5137C13.4585 11.5898 13.4141 11.5454 13.4141 11.4902V10.7939C13.4141 10.7388 13.4585 10.6934 13.5137 10.6934H15.2529C15.3081 10.6934 15.3535 10.6489 15.3535 10.5938V9.97949C15.3535 9.92426 15.3082 9.87891 15.2529 9.87891H12.5176ZM16.2119 9.87891C16.1567 9.87892 16.1123 9.92427 16.1123 9.97949V14.0215C16.1124 14.0767 16.1567 14.1211 16.2119 14.1211H18.9531C19.0083 14.1211 19.0537 14.0767 19.0537 14.0215V13.4072C19.0537 13.352 19.0084 13.3066 18.9531 13.3066H17.208C17.1528 13.3066 17.1085 13.2622 17.1084 13.207V12.5049C17.1084 12.4497 17.1528 12.4043 17.208 12.4043H18.7949C18.8501 12.4043 18.8955 12.3599 18.8955 12.3047V11.6904C18.8955 11.6352 18.8502 11.5898 18.7949 11.5898H17.208C17.1528 11.5898 17.1085 11.5454 17.1084 11.4902V10.7939C17.1084 10.7387 17.1528 10.6934 17.208 10.6934H18.9473C19.0025 10.6934 19.0478 10.6489 19.0479 10.5938V9.97949C19.0479 9.92426 19.0025 9.87891 18.9473 9.87891H16.2119ZM9.9834 10.6875C10.4519 10.6875 10.704 10.8869 10.7041 11.2852C10.7041 11.6836 10.4521 11.8652 9.9834 11.8652H9.55566C9.50059 11.8651 9.45611 11.8207 9.45605 11.7656V10.7881C9.45605 10.7329 9.50055 10.6876 9.55566 10.6875H9.9834Z" fill="#EC3910"/>
</svg>
