<svg width="18" height="18" viewBox="0 0 18 18" fill="none" xmlns="http://www.w3.org/2000/svg">
<path d="M9 11.7063C12.866 11.7063 16 12.6017 16 13.7063C15.9991 14.8106 12.8654 15.7063 9 15.7063C5.13458 15.7063 2.00092 14.8106 2 13.7063C2 12.6017 5.13401 11.7063 9 11.7063ZM13.7188 2.29419C14.2703 2.29469 14.7183 2.74257 14.7188 3.29419V12.2385C13.5097 11.6925 11.5534 11.427 9.3252 11.4036V3.29419C9.32562 2.74239 9.77432 2.2944 10.3262 2.29419H13.7188ZM7.72461 4.70239C8.27625 4.70279 8.72412 5.15077 8.72461 5.70239V11.4133C6.42514 11.5238 4.54011 11.6907 3.35547 12.1819V5.70239C3.35596 5.15074 3.80378 4.70273 4.35547 4.70239H7.72461ZM4.79102 6.16138C4.62587 6.16171 4.49161 6.29605 4.49121 6.46118V7.00513C4.49146 7.17039 4.62577 7.30557 4.79102 7.30591H5.31836C5.48355 7.30551 5.61792 7.17036 5.61816 7.00513V6.46118C5.61776 6.29608 5.48346 6.16177 5.31836 6.16138H4.79102ZM6.76074 6.16138C6.5958 6.16195 6.46134 6.2962 6.46094 6.46118V7.00513C6.46119 7.17025 6.5957 7.30533 6.76074 7.30591H7.28906C7.45417 7.30541 7.58862 7.17029 7.58887 7.00513V6.46118C7.58847 6.29615 7.45408 6.16187 7.28906 6.16138H6.76074ZM10.7627 5.98267C10.5973 5.98287 10.4631 6.11712 10.4629 6.28247V6.9895C10.4631 7.15487 10.5973 7.2891 10.7627 7.28931H11.2041C11.3693 7.28891 11.5037 7.15476 11.5039 6.9895V6.28247C11.5037 6.11724 11.3693 5.98306 11.2041 5.98267H10.7627ZM12.8418 5.98267C12.6764 5.98287 12.5422 6.11712 12.542 6.28247V6.9895C12.5422 7.15487 12.6764 7.2891 12.8418 7.28931H13.2822C13.4476 7.28904 13.5828 7.15484 13.583 6.9895V6.28247C13.5828 6.11716 13.4475 5.98293 13.2822 5.98267H12.8418ZM10.7627 3.92017C10.5974 3.92037 10.4632 4.05468 10.4629 4.21997V4.927C10.4629 5.09252 10.5972 5.2266 10.7627 5.22681H11.2041C11.3694 5.22641 11.5039 5.0924 11.5039 4.927V4.21997C11.5036 4.05479 11.3693 3.92056 11.2041 3.92017H10.7627ZM12.8418 3.92017C12.6765 3.92037 12.5423 4.05468 12.542 4.21997V4.927C12.542 5.09252 12.6763 5.2266 12.8418 5.22681H13.2822C13.4477 5.22654 13.583 5.09248 13.583 4.927V4.21997C13.5827 4.05471 13.4475 3.92043 13.2822 3.92017H12.8418Z" fill="#EC3910"/>
</svg>
