<svg width="24" height="24" viewBox="0 0 24 24" fill="currentColor" xmlns="http://www.w3.org/2000/svg">
<path d="M20 5.69677L13.6864 12L20 18.3032L18.3032 20L12 13.6864L5.69677 20L4 18.3032L10.3127 12L4 5.69677L5.69677 4L12 10.3127L18.3032 4L20 5.69677ZM12 10.5871L5.69677 4.27352L4.27352 5.69677L10.5871 12L4.27352 18.3032L5.69677 19.7265L12 13.4129L18.3032 19.7265L19.7265 18.3032L13.4129 12L19.7265 5.69677L18.3032 4.27352L12 10.5871Z" fill="currentColor"/>
<path d="M12 10.5871L5.69677 4.27352L4.27352 5.69677L10.5871 12L4.27352 18.3032L5.69677 19.7265L12 13.4129L18.3032 19.7265L19.7265 18.3032L13.4129 12L19.7265 5.69677L18.3032 4.27352L12 10.5871Z" fill="currentColor"/>
</svg>
