<svg width="24" height="24" viewBox="0 0 24 24" fill="none" xmlns="http://www.w3.org/2000/svg">
<path d="M9.58691 1.88324C13.7761 1.88366 17.1717 5.27997 17.1719 9.46918C17.1718 11.0396 16.6933 12.4981 15.876 13.7084L22 19.8325L19.7148 22.1166L13.54 15.9418C12.3887 16.6466 11.0358 17.055 9.58691 17.0551C5.39744 17.0551 2.00023 13.6586 2 9.46918C2.00017 5.27971 5.39741 1.88324 9.58691 1.88324ZM9.58691 5.11469C7.1821 5.11469 5.23161 7.0644 5.23145 9.46918L5.2373 9.69379C5.35048 11.9201 7.13584 13.7051 9.3623 13.8178L9.58691 13.8237C11.9161 13.8233 13.8186 11.994 13.9355 9.69379L13.9404 9.46918C13.9403 7.13968 12.111 5.23638 9.81055 5.11957L9.58691 5.11469Z" fill="#EC3910"/>
</svg>
