<svg width="18" height="18" viewBox="0 0 18 18" fill="none" xmlns="http://www.w3.org/2000/svg">
<path d="M13.7276 2.43415C13.4492 2.15581 13.0716 1.99945 12.6779 1.99945C12.2842 1.99945 11.9067 2.15581 11.6283 2.43415L10.4071 3.65606L14.3438 7.59273L15.5649 6.37231C15.7029 6.23443 15.8123 6.07073 15.8869 5.89056C15.9616 5.71039 16 5.51728 16 5.32226C16 5.12723 15.9616 4.93412 15.8869 4.75395C15.8123 4.57378 15.7029 4.41008 15.5649 4.2722L13.7276 2.43415ZM13.2941 8.64241L9.35741 4.70574L2.79877 11.2644L2 16.0006L6.73618 15.2011L13.2941 8.64241Z" fill="#EC3910"/>
</svg>
