<svg width="24" height="24" viewBox="0 0 24 24" fill="none" xmlns="http://www.w3.org/2000/svg">
<path d="M5.41641 4.05084C5.49786 3.97673 5.62419 3.98241 5.69864 4.06354L9.24747 7.9483L9.2543 7.94147L15.726 15.0264L15.7191 15.0323L18.9574 18.5772C19.0318 18.6587 19.0261 18.7849 18.9447 18.8594L18.265 19.4805C18.1836 19.5549 18.0573 19.5491 17.9828 19.4678L14.8051 15.9893L9.14395 21.9171C8.96184 22.1076 8.64375 21.9432 8.69376 21.6846L9.97403 15.1319C9.99864 15.0059 9.92897 14.8808 9.80899 14.835L4.98868 12.9942C4.81293 12.9271 4.76092 12.7023 4.89005 12.5655L8.33829 8.91119L4.72403 4.95416C4.64973 4.87261 4.65525 4.74637 4.73672 4.67194L5.41641 4.05084ZM14.7856 2.08307C14.9655 1.89265 15.2832 2.05352 15.2377 2.31158L14.0805 8.87799C14.0582 9.00509 14.1316 9.12999 14.2533 9.17291L19.1527 10.9005C19.3331 10.9643 19.3881 11.1935 19.2563 11.3321L16.64 14.0694L10.1635 6.97955L14.7856 2.08307Z" fill="#EC3910"/>
</svg>
