<svg width="12" height="12" viewBox="0 0 12 12" fill="none" xmlns="http://www.w3.org/2000/svg">
<path d="M8.7015 2.24846C8.5424 2.08941 8.32664 2.00006 8.10168 2.00006C7.87671 2.00006 7.66096 2.08941 7.50186 2.24846L6.80405 2.94669L9.05358 5.19622L9.75139 4.49884C9.83021 4.42005 9.89273 4.32651 9.93539 4.22355C9.97804 4.1206 10 4.01025 10 3.89881C10 3.78736 9.97804 3.67701 9.93539 3.57406C9.89273 3.4711 9.83021 3.37756 9.75139 3.29878L8.7015 2.24846ZM8.45376 5.79604L6.20424 3.54651L2.45644 7.29431L2 10.0007L4.70639 9.54383L8.45376 5.79604Z" fill="#EC3910"/>
</svg>
