<svg width="16" height="16" viewBox="0 0 16 16" fill="none" xmlns="http://www.w3.org/2000/svg">
<path d="M12.0522 2.3726C11.8136 2.13402 11.49 2 11.1525 2C10.8151 2 10.4914 2.13402 10.2528 2.3726L9.20608 3.41995L12.5804 6.79424L13.6271 5.74816C13.7453 5.62998 13.8391 5.48967 13.9031 5.33524C13.9671 5.18081 14 5.01528 14 4.84812C14 4.68096 13.9671 4.51543 13.9031 4.361C13.8391 4.20657 13.7453 4.06625 13.6271 3.94807L12.0522 2.3726ZM11.6806 7.69396L8.30635 4.31967L2.68466 9.94137L2 14.001L6.05958 13.3157L11.6806 7.69396Z" fill="#EC3910"/>
</svg>
