<svg width="28" height="28" viewBox="0 0 28 28" fill="none" xmlns="http://www.w3.org/2000/svg">
<path d="M4.44629 3.71481C4.54142 3.6279 4.68945 3.63434 4.77637 3.72946L22.4609 23.0869C22.5475 23.1819 22.5409 23.3291 22.4463 23.416L21.4932 24.2861C21.398 24.3727 21.2509 24.3664 21.1641 24.2715L19.9385 22.9297H7.44141C7.22219 22.9296 7.06889 22.713 7.15332 22.5107C7.83703 20.8747 9.07714 19.5291 10.6367 18.7099C10.8486 18.5981 10.8875 18.298 10.7168 18.1299C9.80783 17.238 9.24439 15.9961 9.24414 14.622C9.24414 13.6715 9.5146 12.7846 9.98145 12.0322L8.90527 10.8545C8.14295 11.9153 7.69434 13.2171 7.69434 14.623C7.69442 14.8889 7.71168 15.1516 7.74316 15.4091H2C2.56542 13.7918 3.78618 12.4827 5.34375 11.7988C4.41965 11.0683 3.82668 9.93717 3.82617 8.66794C3.82617 7.74409 4.14185 6.89426 4.66895 6.21774L3.47852 4.91501C3.3917 4.81996 3.39928 4.67188 3.49414 4.58493L4.44629 3.71481ZM14.1602 9.70407C16.8754 9.70455 19.0781 11.9068 19.0781 14.622C19.078 15.2545 18.9553 15.858 18.7373 16.4131L12.7871 9.89938C13.2227 9.77293 13.6838 9.7041 14.1602 9.70407ZM20.3281 4.67575C22.5319 4.67575 24.3193 6.46325 24.3193 8.66696C24.3191 9.73808 23.8955 10.7094 23.208 11.4258C23.0347 11.6063 23.0749 11.9212 23.2939 12.042C24.4793 12.6946 25.4273 13.7253 25.9736 14.9726C26.0652 15.1818 25.906 15.4079 25.6777 15.4082H20.5225C20.5541 15.1505 20.5712 14.8882 20.5713 14.622C20.5713 11.8374 18.8099 9.464 16.3408 8.55368C16.4008 6.40243 18.1623 4.67593 20.3281 4.67575ZM8.01758 4.68161C10.1057 4.78541 11.7701 6.49493 11.8047 8.60056C11.7544 8.62026 11.704 8.64018 11.6543 8.6611L8.01758 4.68161Z" fill="#EC3910"/>
</svg>
