<svg width="18" height="18" viewBox="0 0 18 18" fill="none" xmlns="http://www.w3.org/2000/svg">
<path d="M9.00146 2C10.9881 2.00048 12.5997 3.61096 12.6001 5.59766V6.24414C14.0435 6.62832 15.1077 7.94543 15.1079 9.50977C15.1077 11.3752 13.5943 12.8873 11.729 12.8877H9.44189V16H8.55518V12.8877H6.271C4.40531 12.8877 2.89227 11.3754 2.89209 9.50977C2.89231 7.94412 3.95759 6.62611 5.40283 6.24316V5.59766C5.40326 3.61066 7.01437 2 9.00146 2ZM9.00049 8.98145C8.75593 8.98145 8.55739 9.18031 8.55713 9.4248V12.8408H9.44385V9.4248C9.44359 9.1805 9.24478 8.98175 9.00049 8.98145Z" fill="#EC3910"/>
</svg>
