<svg width="28" height="28" viewBox="0 0 28 28" fill="none" xmlns="http://www.w3.org/2000/svg">
<path d="M14.0005 2C20.6275 2.00026 26.0003 7.37294 26.0005 14C26.0005 20.6273 20.6277 25.9997 14.0005 26C7.37307 26 2.00049 20.6274 2.00049 14C2.00072 7.37278 7.37321 2 14.0005 2ZM8.16943 10.1807C8.05321 10.1807 7.96992 10.295 8.00439 10.4062L8.65674 12.502H7.31885C7.22351 12.502 7.14512 12.5805 7.14502 12.6758V13.9736C7.14526 14.0686 7.22335 14.1465 7.31885 14.1465H9.16748L9.18994 14.2168L10.4331 18.2129C10.4558 18.2852 10.5223 18.3348 10.5972 18.335H12.1821C12.257 18.3349 12.3233 18.2856 12.3462 18.2139L13.6108 14.2158L13.6333 14.1465H14.3755L14.3979 14.2158L15.6538 18.2129C15.6765 18.2851 15.7428 18.3349 15.8179 18.335H17.4028C17.4777 18.3347 17.5442 18.2851 17.5669 18.2129L18.8101 14.2168L18.8325 14.1465H20.6821C20.7534 14.1464 20.815 14.1028 20.8413 14.041L20.855 13.9736V12.6758C20.8549 12.6042 20.8112 12.542 20.7495 12.5156L20.6821 12.502H19.3433L19.9956 10.4062C20.0257 10.309 19.9658 10.2099 19.8726 10.1865L19.8306 10.1807H18.1304C18.0523 10.1807 17.9834 10.2343 17.9634 10.3105L17.4087 12.4277L17.3892 12.502H15.5454L15.5249 12.4297L14.9194 10.3066C14.9034 10.2509 14.8606 10.2083 14.8081 10.1904L14.7534 10.1807H13.2466C13.1701 10.1808 13.102 10.2323 13.0806 10.3066L12.4731 12.4297L12.4526 12.502H10.6118L10.0366 10.3105C10.0216 10.2536 9.97932 10.209 9.92627 10.1904L9.86963 10.1807H8.16943ZM16.9585 14.1465L16.9253 14.2715L16.5063 15.8711L16.4067 15.5195L16.0513 14.2734L16.0142 14.1465H16.9585ZM11.9458 14.2734L11.5923 15.5088L11.4927 15.8594L11.0757 14.2715L11.0425 14.1465H11.9829L11.9458 14.2734Z" fill="#EC3910"/>
</svg>
