<svg width="157" height="68" viewBox="0 0 157 68" fill="none" xmlns="http://www.w3.org/2000/svg">
<g clip-path="url(#clip0_203_193)">
<path d="M39.5913 66.6619C36.8209 66.6619 34.1983 65.456 32.3953 63.3533L22.8667 52.7472C21.3336 51.2287 20.0577 49.3553 19.2989 47.4986C18.2331 44.891 18.0097 41.8611 18.6336 38.4828L15.051 40.6783C14.2957 41.1412 13.435 41.3859 12.5627 41.3859C11.1102 41.3859 9.70434 40.6984 8.80138 39.5471C7.89722 38.3933 7.58067 36.9097 7.93305 35.4766L8.97233 31.2497L4.28653 30.1249C2.39959 29.6719 0.98752 28.1401 0.68942 26.2229C0.39132 24.306 1.2714 22.4182 2.93158 21.4134L6.6549 19.1592L4.13688 15.0508C3.22286 13.5591 3.18614 11.7595 4.03873 10.2369C4.8833 8.72894 6.47219 7.7918 8.1854 7.7918C8.5714 7.7918 8.95899 7.839 9.33792 7.93222L13.5655 8.97149L14.6899 4.28601C15.2071 2.13428 17.116 0.631836 19.3325 0.631836C21.009 0.631836 22.5303 1.49094 23.4014 2.9298L25.6563 6.65438L29.7644 4.13636C30.5201 3.6735 31.3807 3.42881 32.2531 3.42881C33.7053 3.42881 35.1114 4.11601 36.0144 5.26733C36.9185 6.4208 37.2351 7.90448 36.883 9.33747L36.292 11.7416C38.8252 10.9236 41.5361 10.5098 44.3667 10.5098C46.8967 10.5098 49.2141 10.8458 51.2582 11.509C51.7969 11.363 52.3518 11.2892 52.91 11.2892H81.1712C81.5899 11.2892 82.0102 11.3315 82.4231 11.4151C84.7081 10.4786 87.0885 10.004 89.5019 10.004C93.3801 10.004 96.7165 11.2001 99.419 13.5585C99.802 13.893 100.169 14.2513 100.514 14.6289C101.288 13.9988 102.092 13.4283 102.91 12.9281C106.084 10.9877 109.466 10.0039 112.963 10.0039C115.147 10.0039 117.185 10.3927 119.028 11.1599C119.798 10.8414 120.63 10.6741 121.453 10.6741H129.766C131.454 10.6741 133.1 11.3656 134.281 12.5713C134.923 13.2261 135.41 14.0192 135.713 14.885L136.111 14.1093C137.198 11.9906 139.353 10.6742 141.734 10.6742H150.047C153.532 10.6742 156.368 13.5091 156.368 16.9939C156.368 17.2574 156.349 17.5234 156.311 17.8055L156.309 32.3707C156.363 33.5745 156.088 34.802 155.514 35.8928L141.261 62.9503C140.055 65.2396 137.698 66.6618 135.11 66.6618L39.5913 66.6619Z" fill="white"/>
<path d="M19.3325 1.26394C20.7859 1.26394 22.1051 2.00916 22.8608 3.25736L25.4445 7.5253L30.0945 4.67525C30.7506 4.2735 31.497 4.06085 32.253 4.06085C33.5129 4.06085 34.733 4.65793 35.5168 5.65745C36.3006 6.65723 36.5746 7.94373 36.2691 9.18669L35.3998 12.7233C38.1758 11.6739 41.1916 11.1419 44.3665 11.1419C46.9111 11.1419 49.2192 11.4875 51.2451 12.1703C51.782 12.0062 52.3433 11.9213 52.9099 11.9213H81.1711C81.6121 11.9213 82.0527 11.9735 82.4819 12.0754C84.7472 11.1197 87.1038 10.6361 89.5018 10.6361C93.2223 10.6361 96.4192 11.7794 99.0032 14.0348C99.5216 14.4871 100.003 14.9796 100.446 15.5107C101.341 14.7405 102.274 14.0573 103.239 13.4673C106.313 11.5887 109.584 10.6361 112.963 10.6361C115.166 10.6361 117.2 11.0435 119.031 11.8492C119.782 11.4977 120.612 11.3064 121.453 11.3064H129.766C131.286 11.3064 132.766 11.9288 133.829 13.0138C134.739 13.9423 135.298 15.1667 135.416 16.4809L135.47 16.7436L136.673 14.3981C137.652 12.4911 139.591 11.3064 141.734 11.3064H150.047C153.185 11.3064 155.736 13.8581 155.736 16.9942C155.736 17.2404 155.717 17.4938 155.679 17.7619L155.677 32.3709C155.727 33.4914 155.478 34.6056 154.954 35.5986L140.702 62.6558C139.605 64.7372 137.462 66.0301 135.11 66.0301H39.5913C37.0039 66.0301 34.5581 64.905 32.8751 62.9421L23.3367 52.3248C21.8367 50.8375 20.6122 49.0416 19.884 47.2595C18.7947 44.5952 18.6287 41.4539 19.3903 37.9235C19.4211 37.7812 19.4573 37.6402 19.4992 37.5007L19.3715 37.2897L14.7209 40.1397C14.0652 40.5415 13.3191 40.7541 12.5627 40.7541C11.3028 40.7541 10.0827 40.157 9.29892 39.1572C8.51515 38.1574 8.24113 36.8709 8.54688 35.6277L9.7377 30.7836L4.43415 29.5107C2.79741 29.1175 1.57266 27.7891 1.31412 26.1259C1.05552 24.4633 1.81893 22.8257 3.25875 21.9542L7.52581 19.3709L4.67575 14.7209C3.88301 13.427 3.85091 11.8662 4.59025 10.5461C5.32314 9.23712 6.7009 8.42402 8.18552 8.42402C8.52034 8.42402 8.8573 8.46504 9.18719 8.54625L14.0319 9.73707L15.3048 4.43383C15.7532 2.56757 17.4092 1.26394 19.3325 1.26394ZM19.3325 0C16.8227 0 14.6611 1.70177 14.0757 4.13845L13.0993 8.20618L9.48877 7.31871C9.06073 7.21336 8.62215 7.15996 8.18539 7.15996C6.2436 7.15996 4.44338 8.22078 3.48727 9.92855C2.52137 11.6531 2.5627 13.6916 3.59786 15.3811L5.78385 18.9478L2.60397 20.873C0.724047 22.0108 -0.272632 24.1489 0.0650295 26.3201C0.402628 28.4915 2.0017 30.2263 4.13883 30.7396L8.20675 31.716L7.31934 35.3259C6.92019 36.9488 7.27909 38.6295 8.30408 39.9369C9.32559 41.24 10.9176 42.0179 12.5626 42.0179C13.5517 42.0179 14.5264 41.7411 15.3811 41.2174L17.8027 39.7334C17.4434 42.6903 17.7481 45.3754 18.714 47.7378C19.4998 49.6606 20.8154 51.5978 22.4202 53.196L31.9349 63.7867C33.8386 66.0076 36.6363 67.294 39.5913 67.294H135.11C137.933 67.294 140.504 65.7425 141.82 63.245L156.073 36.1878C156.695 35.0065 156.995 33.6782 156.94 32.3444L156.943 17.8478C156.981 17.5531 157 17.2729 157 16.9942C157 13.161 153.881 10.0425 150.047 10.0425H141.734C139.252 10.0425 136.995 11.3417 135.747 13.4601C135.465 12.9778 135.125 12.5301 134.732 12.1293C133.433 10.8031 131.623 10.0425 129.766 10.0425H121.453C120.635 10.0425 119.808 10.1927 119.032 10.48C117.176 9.74465 115.137 9.37223 112.963 9.37223C109.348 9.37223 105.855 10.3872 102.58 12.389C101.898 12.8058 101.226 13.27 100.573 13.7755C100.335 13.5353 100.088 13.3039 99.8342 13.0825C97.0135 10.6206 93.5371 9.37223 89.5018 9.37223C87.0672 9.37223 84.6656 9.83907 82.3577 10.7602C81.9652 10.692 81.5676 10.6575 81.1711 10.6575H52.9099C52.3592 10.6575 51.8117 10.7227 51.2772 10.8519C49.2137 10.2055 46.891 9.878 44.3665 9.878C41.8643 9.878 39.4527 10.1944 37.169 10.8207L37.4964 9.48851C37.8953 7.86555 37.5363 6.18502 36.5115 4.87779C35.4897 3.57486 33.8978 2.7971 32.2529 2.7971C31.264 2.7971 30.2893 3.0739 29.4343 3.59755L25.8675 5.78366L23.942 2.60289C22.9552 0.973106 21.2321 0 19.3325 0Z" fill="black"/>
<path d="M39.9146 17.7625L33.2926 16.1729C32.6569 16.0203 32.2668 15.3797 32.4228 14.7449L33.9373 8.58354C34.2798 7.18999 32.762 6.08094 31.5385 6.83077L25.732 10.3893C25.1746 10.7308 24.4458 10.5538 24.1072 9.99454L20.8214 4.56681C20.0782 3.33921 18.2208 3.62827 17.8859 5.02366L16.2962 11.6457C16.1437 12.2814 15.503 12.6716 14.8683 12.5155L8.70689 11.0009C7.31333 10.6584 6.20429 12.1762 6.95412 13.3998L10.5126 19.2063C10.8542 19.7636 10.6771 20.4925 10.118 20.831L4.69022 24.1168C3.46262 24.86 3.75168 26.7175 5.14707 27.0525L11.7691 28.6421C12.4047 28.7947 12.7949 29.4353 12.6389 30.0701L11.1244 36.2314C10.7818 37.625 12.2996 38.734 13.5232 37.9842L19.3297 34.4257C19.8871 34.0841 20.6159 34.2612 20.9545 34.8204L24.2403 40.2482C24.9834 41.4758 26.8409 41.1868 27.1759 39.7913L28.7655 33.1692C28.918 32.5336 29.5587 32.1434 30.1934 32.2995L36.3548 33.814C37.7483 34.1566 38.8574 32.6388 38.1076 31.4152L34.5491 25.6086C34.2075 25.0513 34.3846 24.3224 34.9438 23.9839L40.3715 20.6981C41.5991 19.9549 41.31 18.0975 39.9146 17.7625Z" fill="black"/>
<path d="M31.5289 20.0032L28.1012 19.1804C27.7722 19.1014 27.5702 18.7698 27.651 18.4412L28.4349 15.252C28.6123 14.5306 27.8266 13.9566 27.1932 14.3447L24.1877 16.1867C23.8992 16.3635 23.5219 16.2718 23.3467 15.9823L21.6459 13.1729C21.2613 12.5374 20.2999 12.6871 20.1264 13.4093L19.3036 16.837C19.2246 17.166 18.8931 17.368 18.5645 17.2872L15.3752 16.5033C14.6539 16.3259 14.0799 17.1116 14.468 17.745L16.3099 20.7505C16.4867 21.039 16.395 21.4163 16.1056 21.5915L13.2961 23.2923C12.6607 23.677 12.8103 24.6384 13.5326 24.8118L16.9603 25.6347C17.2893 25.7137 17.4913 26.0452 17.4105 26.3738L16.6265 29.563C16.4492 30.2844 17.2349 30.8585 17.8682 30.4703L20.8738 28.6284C21.1623 28.4515 21.5396 28.5432 21.7148 28.8327L23.4156 31.6422C23.8003 32.2776 24.7617 32.128 24.9351 31.4057L25.7579 27.978C25.8369 27.649 26.1684 27.447 26.4971 27.5278L29.6863 28.3117C30.4076 28.4891 30.9816 27.7034 30.5936 27.0701L28.7517 24.0645C28.5749 23.776 28.6666 23.3987 28.956 23.2236L31.7655 21.5227C32.4009 21.1381 32.2511 20.1766 31.5289 20.0032Z" fill="white"/>
<path d="M153.331 16.9941C153.331 15.2489 151.918 13.8342 150.173 13.8342H141.856C140.671 13.8342 139.586 14.4973 139.045 15.5518L134.553 24.3088L133.03 16.8278C132.989 16.063 132.686 15.3337 132.146 14.7828C131.552 14.1761 130.739 13.8342 129.889 13.8342H121.576C120.732 13.8342 119.923 14.1721 119.329 14.7726C119.328 14.7738 119.327 14.775 119.325 14.7762C117.53 13.705 115.44 13.1639 113.086 13.1639C110.179 13.1639 107.351 13.9915 104.681 15.6239C103.052 16.6201 101.532 17.9117 100.137 19.4827C99.4612 18.0881 98.5685 16.9035 97.4641 15.9394C95.3535 14.0976 92.7161 13.1639 89.6246 13.1639C87.2599 13.1639 84.9475 13.7116 82.73 14.7945C82.2908 14.5705 81.7997 14.4494 81.2939 14.4494H53.0328C52.4509 14.4494 51.8989 14.6083 51.4239 14.8895C49.4712 14.0796 47.1439 13.6698 44.4897 13.6698C41.5563 13.6698 38.7828 14.169 36.2463 15.1534C33.6507 16.1609 31.424 17.6272 29.628 19.5116C27.7814 21.4509 26.527 23.7114 25.8988 26.2314C24.8354 30.3909 26.0769 33.0786 27.3188 34.6056L26.9744 35.9631H25.0729C23.5845 35.9631 22.298 37.0018 21.9841 38.4567C21.332 41.4799 21.454 44.1199 22.3469 46.3033C22.9677 47.8228 24.0545 49.3672 25.2889 50.579L34.8995 61.2761C36.1002 62.6884 37.8605 63.5024 39.7143 63.5024H135.233C136.64 63.5024 137.932 62.7229 138.588 61.4777L152.841 34.4207C153.162 33.8101 153.311 33.1234 153.271 32.4345L153.274 17.5609C153.307 17.3763 153.331 17.1883 153.331 16.9941Z" fill="black"/>
<path d="M141.856 17.4906L129.651 41.2839H129.399L129.889 17.4906H121.576L121.653 24.1323C121.188 21.8236 120.257 20.047 118.848 18.8165C117.323 17.4858 115.402 16.8203 113.086 16.8203C110.758 16.8203 108.506 17.4858 106.329 18.8165C104.152 20.1474 102.208 22.109 100.497 24.7014C99.7368 25.8527 99.0618 27.1091 98.4623 28.459C98.5359 27.1092 98.4873 25.8527 98.3014 24.7014C97.8828 22.1089 96.9109 20.1473 95.3862 18.8165C93.8614 17.4858 91.9407 16.8203 89.6246 16.8203C87.2965 16.8203 85.0441 17.4858 82.8675 18.8165C82.1236 19.2713 81.4092 19.8061 80.7197 20.4088L81.2939 18.1057H53.0327L52.6087 19.8064C52.1056 19.343 51.5214 18.9363 50.8541 18.5987C49.1843 17.7542 47.0428 17.3261 44.4896 17.3261C41.9491 17.3261 39.5601 17.7532 37.3895 18.5956C35.2304 19.4338 33.3885 20.6425 31.9153 22.1881C30.4518 23.7251 29.4591 25.5094 28.9647 27.4923C28.3649 29.8388 28.6407 31.7343 29.7843 33.127C30.9628 34.5625 32.959 35.6116 35.7183 36.2452L38.8963 37.0058C40.0983 37.2888 41.0625 37.5949 41.7618 37.9158C42.5259 38.2673 43.0566 38.6995 43.3393 39.201C43.6296 39.7194 43.7012 40.3233 43.5506 41.0015C43.3661 41.6724 43.0039 42.2701 42.474 42.7786C41.9581 43.2733 41.2789 43.6686 40.4556 43.9531C39.6481 44.232 38.7134 44.3734 37.6769 44.3734C36.4216 44.3734 35.3687 44.174 34.5479 43.7815C33.678 43.3656 33.0651 42.7326 32.7272 41.9004C32.4606 41.2465 32.3767 40.4797 32.4767 39.6194H25.0729C24.5576 42.0084 24.6246 44.0212 25.2717 45.6036C25.9684 47.3091 27.5577 49.184 28.9678 49.9648C30.4703 50.7957 32.7837 51.2173 35.8439 51.2173L35.9914 51.217C38.7205 51.217 41.2012 50.8272 43.3646 50.0579C45.7807 49.1991 47.5196 48.1034 48.6805 46.708C50.0092 45.1108 50.9479 43.1609 51.5496 40.7477C52.1498 38.2822 51.8653 36.2382 50.7047 34.6721C49.5232 33.0796 47.2987 31.8983 44.0956 31.1614L41.4258 30.6041C39.811 30.2131 38.6937 29.7453 38.0092 29.1742C37.2347 28.5286 36.9906 27.6436 37.3017 26.621C37.4544 26.0079 37.7769 25.458 38.2601 24.9862C38.7292 24.5273 39.3433 24.1657 40.0847 23.9114C40.8075 23.6636 41.6758 23.5377 42.6657 23.5377C43.7306 23.5377 44.6116 23.6883 45.2849 23.9848C46.0156 24.3079 46.5229 24.8066 46.7926 25.4679C46.9858 25.9415 47.0657 26.4874 47.0308 27.0919H54.4864C54.6262 26.444 54.7017 25.8094 54.7222 25.1902H61.177L55.1031 50.9071H63.5658L69.6396 25.1902H76.7295C75.17 27.6818 73.9644 30.6109 73.1218 33.9901C72.228 37.5752 71.9905 40.6634 72.4092 43.2558C72.8278 45.8484 73.7927 47.8138 75.3041 49.1521C76.8151 50.4908 78.7347 51.16 81.0627 51.16C83.3789 51.16 85.6325 50.4907 87.8227 49.1521C90.0128 47.8138 91.9629 45.8522 93.6725 43.2672C94.433 42.1174 95.1085 40.8611 95.7085 39.5104C95.6362 40.8544 95.6852 42.1067 95.8708 43.2558C96.2894 45.8484 97.2543 47.8138 98.7657 49.1521C100.277 50.4908 102.196 51.16 104.524 51.16C106.841 51.16 109.094 50.4907 111.284 49.1521C113.475 47.8138 115.425 45.8522 117.134 43.2672C118.844 40.6826 120.147 37.5903 121.045 33.9901C121.35 32.7664 121.573 31.6058 121.726 30.4986L121.96 50.9071H131.956L150.17 17.4905L141.856 17.4906ZM85.8474 36.6317C85.7565 36.9751 85.6514 37.3321 85.5323 37.7028C85.2941 38.4442 85.0365 39.1245 84.7596 39.7437C84.4827 40.363 84.1867 40.9211 83.8714 41.4181C83.7138 41.6666 83.5517 41.8998 83.385 42.1175C82.8851 42.7706 82.3449 43.2848 81.7644 43.6603C81.3772 43.9107 80.9807 44.0914 80.5749 44.2023C80.169 44.3132 79.7539 44.3545 79.3293 44.3261C78.4802 44.2695 77.8486 43.9514 77.435 43.3713C77.3316 43.2263 77.2414 43.0671 77.1647 42.8937C77.0111 42.5468 76.9109 42.1431 76.8641 41.6823C76.8407 41.4519 76.8307 41.2073 76.8339 40.9484C76.8466 39.9132 77.0917 38.654 77.5682 37.1713C77.6874 36.8007 77.8117 36.4449 77.9412 36.1041C78.2003 35.4225 78.4801 34.8006 78.7807 34.2385C78.931 33.9575 79.0865 33.6914 79.2472 33.4402C79.7291 32.6866 80.2436 32.0777 80.7903 31.6135C80.9726 31.4587 81.1584 31.3201 81.3478 31.1976C81.5372 31.075 81.7295 30.9695 81.9246 30.8811C82.5101 30.6158 83.1213 30.5045 83.7581 30.5469C84.6073 30.6036 85.2469 30.9169 85.6772 31.4865C86.1073 32.056 86.3098 32.8639 86.2845 33.9099C86.2657 34.6944 86.1202 35.6016 85.8474 36.6317ZM109.01 37.6685C108.533 39.1512 107.979 40.3898 107.349 41.3838C106.718 42.3781 106.016 43.1253 105.242 43.6259C104.467 44.1268 103.656 44.3485 102.807 44.2918C101.958 44.2351 101.326 43.917 100.912 43.3369C100.499 42.7571 100.298 41.9495 100.311 40.914C100.324 39.8788 100.569 38.6195 101.046 37.1369C101.522 35.6542 102.082 34.4105 102.725 33.4057C103.367 32.4009 104.068 31.6533 104.825 31.1631C105.583 30.6728 106.386 30.4559 107.236 30.5125C108.085 30.5692 108.724 30.8825 109.155 31.452C109.585 32.0216 109.787 32.8295 109.762 33.8755C109.737 34.9214 109.486 36.1859 109.01 37.6685Z" fill="white"/>
</g>
<defs>
<clipPath id="clip0_203_193">
<rect width="157" height="67.2939" fill="white"/>
</clipPath>
</defs>
</svg>
